<?xml version="1.0" standalone="no"?>
<!DOCTYPE svg PUBLIC "-//W3C//DTD SVG 20010904//EN"
 "http://www.w3.org/TR/2001/REC-SVG-20010904/DTD/svg10.dtd">
<svg version="1.0" xmlns="http://www.w3.org/2000/svg"
 width="1021.000000pt" height="1021.000000pt" viewBox="0 0 1021.000000 1021.000000"
 preserveAspectRatio="xMidYMid meet">
<metadata>
Created by potrace 1.14, written by Peter Selinger 2001-2017
</metadata>
<g transform="translate(0.000000,1021.000000) scale(0.100000,-0.100000)"
fill="#000000" stroke="none">
<path d="M4838 10205 c-1 -2 -48 -6 -103 -9 -119 -8 -146 -10 -335 -36 -139
-19 -164 -23 -220 -35 -14 -3 -41 -8 -60 -11 -217 -35 -717 -184 -935 -279
-16 -7 -79 -34 -140 -60 -197 -85 -445 -218 -701 -375 -34 -21 -228 -154 -234
-160 -3 -3 -30 -23 -60 -45 -30 -22 -64 -47 -75 -57 -11 -9 -65 -54 -120 -98
-188 -154 -403 -359 -548 -525 -39 -44 -73 -82 -76 -85 -12 -10 -138 -166
-200 -248 -34 -46 -110 -154 -167 -240 -58 -86 -108 -162 -112 -168 -10 -14
-25 -40 -105 -183 -213 -381 -384 -811 -490 -1236 -44 -173 -91 -410 -102
-506 -3 -26 -8 -58 -10 -70 -3 -13 -8 -51 -11 -84 -3 -33 -7 -71 -9 -84 -20
-122 -27 -686 -12 -866 28 -334 59 -534 126 -820 50 -212 156 -553 215 -688 7
-18 37 -88 66 -157 62 -144 221 -462 274 -544 20 -31 36 -59 36 -62 0 -13 258
-394 296 -436 13 -15 24 -30 24 -33 0 -3 7 -13 15 -22 8 -10 40 -49 71 -88
179 -222 395 -446 624 -646 87 -76 305 -248 380 -299 28 -19 57 -40 63 -45 7
-6 73 -49 147 -97 343 -218 652 -370 1035 -510 97 -35 392 -126 437 -133 17
-3 34 -8 38 -10 16 -10 365 -81 490 -99 32 -5 158 -20 255 -31 247 -27 782
-27 1005 0 19 2 60 7 90 10 30 3 66 8 80 10 14 2 45 7 70 10 25 3 68 10 95 15
28 5 64 11 80 14 60 9 233 47 365 82 74 19 142 36 150 38 29 7 354 117 385
130 16 7 98 41 180 76 156 65 485 229 552 274 21 14 43 26 50 26 7 0 13 4 13
9 0 5 9 12 19 16 43 13 443 289 545 375 11 10 41 35 66 55 208 168 497 453
651 641 19 23 47 57 62 75 293 357 542 772 752 1254 7 17 25 62 40 100 14 39
30 79 35 90 21 48 102 301 134 415 59 216 120 516 141 690 2 25 7 61 10 80 22
162 30 301 30 585 0 237 -7 422 -20 520 -2 17 -7 53 -9 80 -3 28 -8 66 -11 85
-3 19 -8 53 -10 75 -5 37 -19 118 -30 175 -3 14 -8 41 -11 60 -37 215 -155
619 -249 860 -290 740 -723 1373 -1310 1917 -122 113 -211 187 -365 304 -175
133 -267 195 -482 323 -205 123 -588 313 -718 356 -14 5 -63 23 -110 40 -292
110 -659 206 -970 256 -66 10 -89 14 -135 19 -27 4 -59 8 -70 10 -11 1 -56 6
-100 10 -44 4 -91 9 -105 12 -30 5 -657 13 -662 8z"/>
</g>
</svg>
